<svg 
 xmlns="http://www.w3.org/2000/svg"
 xmlns:xlink="http://www.w3.org/1999/xlink"
 width="100%" height="100%" viewBox="0 0 1800 1800" preserveAspectRatio="none">
<path fill-rule="evenodd"  stroke="rgb(0, 0, 0)" stroke-width="0px" stroke-linecap="round" stroke-linejoin="miter" fill="rgb(255, 255, 255)"
 d="M1544.861,1569.068 C1499.001,1552.366 1453.142,1535.663 1407.282,1518.960 C1390.111,1532.891 1372.383,1546.138 1354.106,1558.687 C1293.635,1600.204 1230.893,1632.046 1167.146,1654.666 C1119.139,1671.700 1071.434,1683.629 1024.177,1690.658 C994.295,1695.103 962.463,1697.741 928.197,1698.656 C872.869,1700.134 819.991,1696.776 770.231,1688.659 C654.954,1669.854 543.791,1624.654 447.301,1558.687 C428.844,1546.069 410.981,1532.689 393.681,1518.609 C347.500,1535.429 301.320,1552.249 255.139,1569.068 C212.306,1494.879 169.473,1420.690 126.639,1346.500 C84.426,1273.333 42.213,1200.167 -0.000,1127.000 C-0.000,1125.333 -0.000,1123.667 -0.000,1122.000 C37.246,1090.875 74.491,1059.749 111.737,1028.624 C105.945,994.475 102.376,960.761 101.375,927.826 C100.854,910.701 100.902,891.653 101.375,872.838 C101.867,853.295 102.851,834.252 104.374,814.850 C112.157,770.145 117.635,726.880 129.369,687.878 C149.708,620.276 195.047,493.881 291.327,380.889 C346.353,316.310 416.586,256.404 497.290,208.983 C535.536,186.511 574.448,167.781 613.265,152.996 C614.701,152.449 616.138,151.917 617.575,151.380 C626.050,103.253 634.525,55.127 643.000,7.000 C728.667,7.000 814.333,7.000 900.000,7.000 C985.667,7.000 1071.333,7.000 1157.000,7.000 C1165.482,55.165 1173.964,103.330 1182.446,151.495 C1232.164,170.239 1281.523,194.974 1330.111,225.980 C1395.345,267.608 1451.526,315.519 1498.049,367.394 C1583.451,462.623 1644.841,578.515 1676.036,702.875 C1702.233,807.307 1707.106,915.554 1690.033,1018.806 C1689.488,1022.105 1688.914,1025.394 1688.327,1028.677 C1725.551,1059.784 1762.776,1090.892 1800.000,1122.000 C1800.000,1123.667 1800.000,1125.333 1800.000,1127.000 C1757.787,1200.167 1715.574,1273.333 1673.361,1346.500 C1630.527,1420.690 1587.694,1494.879 1544.861,1569.068 ZM1666.617,1078.180 C1666.698,1077.773 1666.779,1077.365 1666.860,1076.958 C1656.255,1067.905 1645.650,1058.852 1635.045,1049.799 C1641.141,1022.107 1645.476,994.099 1648.042,965.817 C1650.719,936.323 1651.379,905.453 1650.042,872.838 C1647.730,816.439 1639.386,758.685 1625.047,704.874 C1587.137,562.607 1499.963,417.908 1368.103,312.961 C1299.137,258.071 1220.930,216.073 1136.152,187.988 C1133.926,174.380 1131.699,160.769 1129.472,147.160 C1129.314,147.107 1129.157,147.053 1129.000,147.000 C1124.000,117.000 1119.000,87.000 1114.000,57.000 C1042.667,57.000 971.333,57.000 900.000,57.000 C828.667,57.000 757.333,57.000 686.000,57.000 C681.000,87.000 676.000,117.000 671.000,147.000 C670.986,147.005 670.973,147.009 670.959,147.014 C668.724,160.672 666.489,174.331 664.254,187.988 C594.361,210.699 528.418,243.655 468.296,285.966 C410.484,326.651 357.232,376.901 310.599,436.488 C235.362,532.624 183.008,647.179 161.362,767.861 C150.205,830.063 146.969,891.940 151.364,951.820 C153.788,984.839 158.460,1017.521 165.361,1049.799 C154.647,1058.983 143.932,1068.166 133.218,1077.350 C133.273,1077.627 133.328,1077.904 133.383,1078.180 C109.902,1097.510 86.421,1116.840 62.941,1136.171 C98.607,1197.947 134.274,1259.724 169.941,1321.500 C205.607,1383.276 241.274,1445.053 276.941,1506.829 C305.421,1496.160 333.902,1485.490 362.383,1474.820 C362.659,1475.062 362.936,1475.305 363.213,1475.548 C375.579,1470.601 387.946,1465.654 400.311,1460.708 C422.897,1480.349 446.566,1498.685 471.295,1515.697 C530.052,1556.114 589.989,1586.414 650.257,1607.676 C692.101,1622.439 735.503,1633.481 780.229,1640.669 C829.114,1648.526 878.719,1651.574 928.197,1649.667 C1055.143,1644.775 1183.254,1607.351 1294.119,1538.691 C1331.065,1515.810 1365.752,1489.771 1398.096,1460.708 C1411.180,1465.489 1424.267,1470.271 1437.352,1475.052 C1437.441,1474.975 1437.529,1474.897 1437.617,1474.820 C1466.098,1485.490 1494.579,1496.160 1523.059,1506.829 C1558.726,1445.053 1594.393,1383.276 1630.059,1321.500 C1665.726,1259.724 1701.393,1197.947 1737.059,1136.171 C1713.579,1116.840 1690.098,1097.510 1666.617,1078.180 Z"/>
</svg>