<svg 
 xmlns="http://www.w3.org/2000/svg"
 xmlns:xlink="http://www.w3.org/1999/xlink"
 width="100%" height="100%" viewBox="0 0 1800 1800" preserveAspectRatio="none">
<path fill-rule="evenodd"  stroke="rgb(0, 0, 0)" stroke-width="0px" stroke-linecap="butt" stroke-linejoin="miter" fill="rgb(255, 255, 255)"
 d="M1453.390,1219.500 C1442.239,1226.148 1431.087,1232.797 1419.936,1239.445 C1324.429,1184.313 1228.923,1129.181 1133.416,1074.049 C1133.174,1118.133 1132.920,1164.296 1132.920,1164.296 L1098.593,1183.830 C1098.593,1183.830 1076.546,1171.481 1065.523,1165.306 C1065.578,1121.855 1065.633,1078.404 1065.688,1034.953 C1045.497,1023.297 1025.306,1011.642 1005.115,999.987 L1004.755,1082.989 L934.000,1042.502 C934.000,1065.651 934.000,1088.801 934.000,1111.950 C971.667,1133.633 1009.333,1155.317 1047.000,1177.000 C1046.836,1189.634 1046.508,1214.902 1046.508,1214.902 L1012.427,1234.862 C1012.427,1234.862 972.306,1211.992 934.000,1190.156 C934.000,1220.437 934.000,1250.719 934.000,1281.000 C923.000,1287.333 912.000,1293.667 901.000,1300.000 C889.333,1293.667 877.667,1287.333 866.000,1281.000 C866.000,1250.642 866.000,1220.284 866.000,1189.925 C827.708,1211.896 787.464,1234.987 787.464,1234.987 L753.491,1214.959 C753.491,1214.959 753.164,1189.606 753.000,1176.930 C790.667,1155.104 828.333,1133.279 866.000,1111.453 C866.000,1088.281 866.000,1065.110 866.000,1041.938 L794.259,1082.989 L793.901,1000.554 C773.750,1012.187 753.598,1023.820 733.446,1035.453 C733.501,1078.904 733.556,1122.355 733.611,1165.806 C722.588,1171.981 700.541,1184.330 700.541,1184.330 L666.214,1164.796 C666.214,1164.796 665.960,1118.633 665.718,1074.549 C570.500,1129.515 475.282,1184.480 380.064,1239.445 C369.079,1233.085 358.095,1226.726 347.110,1220.366 C346.761,1207.096 346.413,1193.825 346.064,1180.555 C441.291,1125.509 536.518,1070.463 631.744,1015.417 C593.623,993.271 553.624,970.034 553.624,970.034 L553.983,930.599 C553.983,930.599 575.775,917.639 586.672,911.159 C624.335,932.825 661.998,954.492 699.661,976.158 C719.586,964.641 739.510,953.123 759.435,941.606 L689.011,900.493 L760.480,858.769 C740.116,847.014 719.752,835.259 699.388,823.504 C661.796,845.271 624.203,867.038 586.611,888.806 C575.752,882.347 554.033,869.429 554.033,869.429 L553.787,829.934 C553.787,829.934 593.610,806.649 631.654,784.404 C605.436,769.269 579.218,754.135 553.000,739.000 C553.000,726.333 553.000,713.667 553.000,701.000 C564.667,694.000 576.333,687.000 588.000,680.000 C613.973,695.014 639.946,710.027 665.919,725.041 C666.037,681.060 666.161,635.047 666.161,635.047 L700.492,615.640 C700.492,615.640 722.612,628.033 733.672,634.229 C733.740,677.594 733.808,720.959 733.875,764.323 C753.886,775.891 773.897,787.458 793.907,799.025 L794.259,717.997 L866.000,759.048 C866.000,735.881 866.000,712.714 866.000,689.547 C828.333,667.721 790.667,645.896 753.000,624.070 C753.164,611.394 753.491,586.041 753.491,586.041 L787.464,566.013 C787.464,566.013 827.708,589.104 866.000,611.075 C866.000,500.716 866.000,390.358 866.000,280.000 C877.333,273.667 888.667,267.333 900.000,261.000 C911.333,267.333 922.667,273.667 934.000,280.000 C934.000,390.281 934.000,500.563 934.000,610.844 C972.306,589.008 1012.427,566.138 1012.427,566.138 L1046.508,586.098 C1046.508,586.098 1046.836,611.366 1047.000,624.000 C1009.333,645.683 971.667,667.367 934.000,689.050 C934.000,712.195 934.000,735.339 934.000,758.484 L1004.755,717.997 L1005.109,799.594 C1025.159,788.004 1045.209,776.414 1065.259,764.824 C1065.326,721.459 1065.394,678.094 1065.462,634.729 C1076.522,628.533 1098.642,616.140 1098.642,616.140 L1132.973,635.547 C1132.973,635.547 1133.097,681.560 1133.215,725.542 C1159.477,710.361 1185.738,695.181 1212.000,680.000 C1223.667,686.667 1235.333,693.333 1247.000,700.000 C1247.000,713.000 1247.000,726.000 1247.000,739.000 C1220.493,754.301 1193.986,769.603 1167.480,784.904 C1205.523,807.148 1245.347,830.434 1245.347,830.434 L1245.101,869.929 C1245.101,869.929 1223.382,882.847 1212.523,889.306 C1174.931,867.538 1137.338,845.771 1099.746,824.004 C1079.505,835.688 1059.265,847.372 1039.024,859.056 L1110.003,900.493 L1040.070,941.320 C1059.871,952.766 1079.672,964.212 1099.473,975.658 C1137.136,953.991 1174.799,932.325 1212.462,910.659 C1223.359,917.139 1245.151,930.099 1245.151,930.099 L1245.510,969.534 C1245.510,969.534 1205.511,992.771 1167.390,1014.917 C1262.905,1070.130 1358.421,1125.342 1453.936,1180.555 C1453.754,1193.537 1453.572,1206.518 1453.390,1219.500 ZM934.080,840.973 L865.920,840.973 L831.841,900.000 L865.920,959.027 L934.080,959.027 L968.159,900.000 L934.080,840.973 Z"/>
 
<path fill-rule="evenodd"  stroke="rgb(0, 0, 0)" stroke-width="0px" stroke-linecap="butt" stroke-linejoin="miter" fill="rgb(255, 255, 255)"
 d="M900.000,1425.000 C610.051,1425.000 375.000,1189.949 375.000,900.000 C375.000,610.051 610.051,375.000 900.000,375.000 C1189.949,375.000 1425.000,610.051 1425.000,900.000 C1425.000,1189.949 1189.949,1425.000 900.000,1425.000 ZM900.000,455.000 C654.233,455.000 455.000,654.233 455.000,900.000 C455.000,1145.767 654.233,1345.000 900.000,1345.000 C1145.767,1345.000 1345.000,1145.767 1345.000,900.000 C1345.000,654.233 1145.767,455.000 900.000,455.000 Z"/>
</svg>