<svg 
 xmlns="http://www.w3.org/2000/svg"
 xmlns:xlink="http://www.w3.org/1999/xlink"
 width="100%" height="100%" viewBox="0 0 1800 1800" preserveAspectRatio="none">
<path fill-rule="evenodd"  stroke="rgb(0, 0, 0)" stroke-width="0px" stroke-linecap="butt" stroke-linejoin="miter" fill="rgb(0, 0, 0)"
 d="M1453.390,1219.500 C1442.239,1226.148 1431.087,1232.797 1419.936,1239.445 C1324.429,1184.313 1228.923,1129.181 1133.416,1074.049 C1133.174,1118.133 1132.920,1164.296 1132.920,1164.296 L1098.593,1183.830 C1098.593,1183.830 1076.546,1171.481 1065.523,1165.306 C1065.578,1121.855 1065.633,1078.404 1065.688,1034.953 C1045.497,1023.297 1025.306,1011.642 1005.115,999.987 L1004.755,1082.989 L934.000,1042.502 C934.000,1065.651 934.000,1088.801 934.000,1111.950 C971.667,1133.633 1009.333,1155.317 1047.000,1177.000 C1046.836,1189.634 1046.508,1214.902 1046.508,1214.902 L1012.427,1234.862 C1012.427,1234.862 972.306,1211.992 934.000,1190.156 C934.000,1220.437 934.000,1250.719 934.000,1281.000 C923.000,1287.333 912.000,1293.667 901.000,1300.000 C889.333,1293.667 877.667,1287.333 866.000,1281.000 C866.000,1250.642 866.000,1220.284 866.000,1189.925 C827.708,1211.896 787.464,1234.987 787.464,1234.987 L753.491,1214.959 C753.491,1214.959 753.164,1189.606 753.000,1176.930 C790.667,1155.104 828.333,1133.279 866.000,1111.453 C866.000,1088.281 866.000,1065.110 866.000,1041.938 L794.259,1082.989 L793.901,1000.554 C773.750,1012.187 753.598,1023.820 733.446,1035.453 C733.501,1078.904 733.556,1122.355 733.611,1165.806 C722.588,1171.981 700.541,1184.330 700.541,1184.330 L666.214,1164.796 C666.214,1164.796 665.960,1118.633 665.718,1074.549 C570.500,1129.515 475.282,1184.480 380.064,1239.445 C369.079,1233.085 358.095,1226.726 347.110,1220.366 C346.761,1207.096 346.413,1193.825 346.064,1180.555 C441.291,1125.509 536.518,1070.463 631.744,1015.417 C593.623,993.271 553.624,970.034 553.624,970.034 L553.983,930.599 C553.983,930.599 575.775,917.639 586.672,911.159 C624.335,932.825 661.998,954.492 699.661,976.158 C719.586,964.641 739.510,953.123 759.435,941.606 L689.011,900.493 L760.480,858.769 C740.116,847.014 719.752,835.259 699.388,823.504 C661.796,845.271 624.203,867.038 586.611,888.806 C575.752,882.347 554.033,869.429 554.033,869.429 L553.787,829.934 C553.787,829.934 593.610,806.649 631.654,784.404 C605.436,769.269 579.218,754.135 553.000,739.000 C553.000,726.333 553.000,713.667 553.000,701.000 C564.667,694.000 576.333,687.000 588.000,680.000 C613.973,695.014 639.946,710.027 665.919,725.041 C666.037,681.060 666.161,635.047 666.161,635.047 L700.492,615.640 C700.492,615.640 722.612,628.033 733.672,634.229 C733.740,677.594 733.808,720.959 733.875,764.323 C753.886,775.891 773.897,787.458 793.907,799.025 L794.259,717.997 L866.000,759.048 C866.000,735.881 866.000,712.714 866.000,689.547 C828.333,667.721 790.667,645.896 753.000,624.070 C753.164,611.394 753.491,586.041 753.491,586.041 L787.464,566.013 C787.464,566.013 827.708,589.104 866.000,611.075 C866.000,500.716 866.000,390.358 866.000,280.000 C877.333,273.667 888.667,267.333 900.000,261.000 C911.333,267.333 922.667,273.667 934.000,280.000 C934.000,390.281 934.000,500.563 934.000,610.844 C972.306,589.008 1012.427,566.138 1012.427,566.138 L1046.508,586.098 C1046.508,586.098 1046.836,611.366 1047.000,624.000 C1009.333,645.683 971.667,667.367 934.000,689.050 C934.000,712.195 934.000,735.339 934.000,758.484 L1004.755,717.997 L1005.109,799.594 C1025.159,788.004 1045.209,776.414 1065.259,764.824 C1065.326,721.459 1065.394,678.094 1065.462,634.729 C1076.522,628.533 1098.642,616.140 1098.642,616.140 L1132.973,635.547 C1132.973,635.547 1133.097,681.560 1133.215,725.542 C1159.477,710.361 1185.738,695.181 1212.000,680.000 C1223.667,686.667 1235.333,693.333 1247.000,700.000 C1247.000,713.000 1247.000,726.000 1247.000,739.000 C1220.493,754.301 1193.986,769.603 1167.480,784.904 C1205.523,807.148 1245.347,830.434 1245.347,830.434 L1245.101,869.929 C1245.101,869.929 1223.382,882.847 1212.523,889.306 C1174.931,867.538 1137.338,845.771 1099.746,824.004 C1079.505,835.688 1059.265,847.372 1039.024,859.056 L1110.003,900.493 L1040.070,941.320 C1059.871,952.766 1079.672,964.212 1099.473,975.658 C1137.136,953.991 1174.799,932.325 1212.462,910.659 C1223.359,917.139 1245.151,930.099 1245.151,930.099 L1245.510,969.534 C1245.510,969.534 1205.511,992.771 1167.390,1014.917 C1262.905,1070.130 1358.421,1125.342 1453.936,1180.555 C1453.754,1193.537 1453.572,1206.518 1453.390,1219.500 ZM934.080,840.973 L865.920,840.973 L831.841,900.000 L865.920,959.027 L934.080,959.027 L968.159,900.000 L934.080,840.973 Z"/>
 
<path fill-rule="evenodd"  stroke="rgb(0, 0, 0)" stroke-width="0px" stroke-linecap="butt" stroke-linejoin="miter" fill="rgb(0, 0, 0)"
 d="M900.000,1425.000 C610.051,1425.000 375.000,1189.949 375.000,900.000 C375.000,610.051 610.051,375.000 900.000,375.000 C1189.949,375.000 1425.000,610.051 1425.000,900.000 C1425.000,1189.949 1189.949,1425.000 900.000,1425.000 ZM900.000,455.000 C654.233,455.000 455.000,654.233 455.000,900.000 C455.000,1145.767 654.233,1345.000 900.000,1345.000 C1145.767,1345.000 1345.000,1145.767 1345.000,900.000 C1345.000,654.233 1145.767,455.000 900.000,455.000 Z"/>

 
<path fill-rule="evenodd"  stroke="rgb(0, 0, 0)" stroke-width="0px" stroke-linecap="round" stroke-linejoin="miter" fill="rgb(0, 0, 0)"
 d="M1544.861,1569.068 C1499.001,1552.366 1453.142,1535.663 1407.282,1518.960 C1390.111,1532.891 1372.383,1546.138 1354.106,1558.687 C1293.635,1600.204 1230.893,1632.046 1167.146,1654.666 C1119.139,1671.700 1071.434,1683.629 1024.177,1690.658 C994.295,1695.103 962.463,1697.741 928.197,1698.656 C872.869,1700.134 819.991,1696.776 770.231,1688.659 C654.954,1669.854 543.791,1624.654 447.301,1558.687 C428.844,1546.069 410.981,1532.689 393.681,1518.609 C347.500,1535.429 301.320,1552.249 255.139,1569.068 C212.306,1494.879 169.473,1420.690 126.639,1346.500 C84.426,1273.333 42.213,1200.167 -0.000,1127.000 C-0.000,1125.333 -0.000,1123.667 -0.000,1122.000 C37.246,1090.875 74.491,1059.749 111.737,1028.624 C105.945,994.475 102.376,960.761 101.375,927.826 C100.854,910.701 100.902,891.653 101.375,872.838 C101.867,853.295 102.851,834.252 104.374,814.850 C112.157,770.145 117.635,726.880 129.369,687.878 C149.708,620.276 195.047,493.881 291.327,380.889 C346.353,316.310 416.586,256.404 497.290,208.983 C535.536,186.511 574.448,167.781 613.265,152.996 C614.701,152.449 616.138,151.917 617.575,151.380 C626.050,103.253 634.525,55.127 643.000,7.000 C728.667,7.000 814.333,7.000 900.000,7.000 C985.667,7.000 1071.333,7.000 1157.000,7.000 C1165.482,55.165 1173.964,103.330 1182.446,151.495 C1232.164,170.239 1281.523,194.974 1330.111,225.980 C1395.345,267.608 1451.526,315.519 1498.049,367.394 C1583.451,462.623 1644.841,578.515 1676.036,702.875 C1702.233,807.307 1707.106,915.554 1690.033,1018.806 C1689.488,1022.105 1688.914,1025.394 1688.327,1028.677 C1725.551,1059.784 1762.776,1090.892 1800.000,1122.000 C1800.000,1123.667 1800.000,1125.333 1800.000,1127.000 C1757.787,1200.167 1715.574,1273.333 1673.361,1346.500 C1630.527,1420.690 1587.694,1494.879 1544.861,1569.068 ZM1666.617,1078.180 C1666.698,1077.773 1666.779,1077.365 1666.860,1076.958 C1656.255,1067.905 1645.650,1058.852 1635.045,1049.799 C1641.141,1022.107 1645.476,994.099 1648.042,965.817 C1650.719,936.323 1651.379,905.453 1650.042,872.838 C1647.730,816.439 1639.386,758.685 1625.047,704.874 C1587.137,562.607 1499.963,417.908 1368.103,312.961 C1299.137,258.071 1220.930,216.073 1136.152,187.988 C1133.926,174.380 1131.699,160.769 1129.472,147.160 C1129.314,147.107 1129.157,147.053 1129.000,147.000 C1124.000,117.000 1119.000,87.000 1114.000,57.000 C1042.667,57.000 971.333,57.000 900.000,57.000 C828.667,57.000 757.333,57.000 686.000,57.000 C681.000,87.000 676.000,117.000 671.000,147.000 C670.986,147.005 670.973,147.009 670.959,147.014 C668.724,160.672 666.489,174.331 664.254,187.988 C594.361,210.699 528.418,243.655 468.296,285.966 C410.484,326.651 357.232,376.901 310.599,436.488 C235.362,532.624 183.008,647.179 161.362,767.861 C150.205,830.063 146.969,891.940 151.364,951.820 C153.788,984.839 158.460,1017.521 165.361,1049.799 C154.647,1058.983 143.932,1068.166 133.218,1077.350 C133.273,1077.627 133.328,1077.904 133.383,1078.180 C109.902,1097.510 86.421,1116.840 62.941,1136.171 C98.607,1197.947 134.274,1259.724 169.941,1321.500 C205.607,1383.276 241.274,1445.053 276.941,1506.829 C305.421,1496.160 333.902,1485.490 362.383,1474.820 C362.659,1475.062 362.936,1475.305 363.213,1475.548 C375.579,1470.601 387.946,1465.654 400.311,1460.708 C422.897,1480.349 446.566,1498.685 471.295,1515.697 C530.052,1556.114 589.989,1586.414 650.257,1607.676 C692.101,1622.439 735.503,1633.481 780.229,1640.669 C829.114,1648.526 878.719,1651.574 928.197,1649.667 C1055.143,1644.775 1183.254,1607.351 1294.119,1538.691 C1331.065,1515.810 1365.752,1489.771 1398.096,1460.708 C1411.180,1465.489 1424.267,1470.271 1437.352,1475.052 C1437.441,1474.975 1437.529,1474.897 1437.617,1474.820 C1466.098,1485.490 1494.579,1496.160 1523.059,1506.829 C1558.726,1445.053 1594.393,1383.276 1630.059,1321.500 C1665.726,1259.724 1701.393,1197.947 1737.059,1136.171 C1713.579,1116.840 1690.098,1097.510 1666.617,1078.180 Z"/>
</svg>